<mxfile host="app.diagrams.net" modified="2023-09-28T13:10:45.177Z" agent="Mozilla/5.0 (Windows NT 10.0; Win64; x64) AppleWebKit/537.36 (KHTML, like Gecko) Chrome/117.0.0.0 Safari/537.36 Edg/117.0.2045.43" etag="annGR4ahWIV7foUyIeud" version="21.8.2" type="device">
  <diagram name="Page-1" id="FvxHl11uBRqrBZjG8gbk">
    <mxGraphModel dx="842" dy="590" grid="1" gridSize="10" guides="1" tooltips="1" connect="1" arrows="1" fold="1" page="1" pageScale="1" pageWidth="850" pageHeight="1100" math="0" shadow="0">
      <root>
        <mxCell id="0" />
        <mxCell id="1" parent="0" />
        <mxCell id="C-tJhh6TLT3XKXirkUaN-11" value="" style="edgeStyle=orthogonalEdgeStyle;rounded=0;orthogonalLoop=1;jettySize=auto;html=1;" edge="1" parent="1" source="C-tJhh6TLT3XKXirkUaN-2" target="C-tJhh6TLT3XKXirkUaN-6">
          <mxGeometry relative="1" as="geometry" />
        </mxCell>
        <mxCell id="C-tJhh6TLT3XKXirkUaN-14" style="edgeStyle=orthogonalEdgeStyle;rounded=0;orthogonalLoop=1;jettySize=auto;html=1;exitX=1;exitY=0.5;exitDx=0;exitDy=0;entryX=0.5;entryY=0;entryDx=0;entryDy=0;" edge="1" parent="1" source="C-tJhh6TLT3XKXirkUaN-2" target="C-tJhh6TLT3XKXirkUaN-10">
          <mxGeometry relative="1" as="geometry">
            <Array as="points">
              <mxPoint x="550" y="225" />
              <mxPoint x="550" y="590" />
              <mxPoint x="425" y="590" />
            </Array>
          </mxGeometry>
        </mxCell>
        <mxCell id="C-tJhh6TLT3XKXirkUaN-2" value="if inventory contains WOOD" style="rhombus;whiteSpace=wrap;html=1;" vertex="1" parent="1">
          <mxGeometry x="353" y="160" width="145" height="130" as="geometry" />
        </mxCell>
        <mxCell id="C-tJhh6TLT3XKXirkUaN-4" value="" style="edgeStyle=orthogonalEdgeStyle;rounded=0;orthogonalLoop=1;jettySize=auto;html=1;" edge="1" parent="1" source="C-tJhh6TLT3XKXirkUaN-3" target="C-tJhh6TLT3XKXirkUaN-2">
          <mxGeometry relative="1" as="geometry" />
        </mxCell>
        <mxCell id="C-tJhh6TLT3XKXirkUaN-3" value="Start" style="ellipse;whiteSpace=wrap;html=1;" vertex="1" parent="1">
          <mxGeometry x="365" y="30" width="120" height="80" as="geometry" />
        </mxCell>
        <mxCell id="C-tJhh6TLT3XKXirkUaN-12" value="" style="edgeStyle=orthogonalEdgeStyle;rounded=0;orthogonalLoop=1;jettySize=auto;html=1;entryX=0.5;entryY=0;entryDx=0;entryDy=0;" edge="1" parent="1" source="C-tJhh6TLT3XKXirkUaN-6" target="C-tJhh6TLT3XKXirkUaN-7">
          <mxGeometry relative="1" as="geometry" />
        </mxCell>
        <mxCell id="C-tJhh6TLT3XKXirkUaN-6" value="remove 1 WOOD from inventory" style="shape=process;whiteSpace=wrap;html=1;backgroundOutline=1;" vertex="1" parent="1">
          <mxGeometry x="365" y="330" width="120" height="60" as="geometry" />
        </mxCell>
        <mxCell id="C-tJhh6TLT3XKXirkUaN-13" value="" style="edgeStyle=orthogonalEdgeStyle;rounded=0;orthogonalLoop=1;jettySize=auto;html=1;" edge="1" parent="1" source="C-tJhh6TLT3XKXirkUaN-7" target="C-tJhh6TLT3XKXirkUaN-9">
          <mxGeometry relative="1" as="geometry" />
        </mxCell>
        <mxCell id="C-tJhh6TLT3XKXirkUaN-7" value="add crafted item to crafted items" style="shape=process;whiteSpace=wrap;html=1;backgroundOutline=1;" vertex="1" parent="1">
          <mxGeometry x="365" y="410" width="120" height="60" as="geometry" />
        </mxCell>
        <mxCell id="C-tJhh6TLT3XKXirkUaN-19" style="edgeStyle=orthogonalEdgeStyle;rounded=0;orthogonalLoop=1;jettySize=auto;html=1;exitX=0;exitY=0.5;exitDx=0;exitDy=0;entryX=0;entryY=0.5;entryDx=0;entryDy=0;" edge="1" parent="1" source="C-tJhh6TLT3XKXirkUaN-9" target="C-tJhh6TLT3XKXirkUaN-17">
          <mxGeometry relative="1" as="geometry">
            <Array as="points">
              <mxPoint x="240" y="520" />
              <mxPoint x="240" y="750" />
            </Array>
          </mxGeometry>
        </mxCell>
        <mxCell id="C-tJhh6TLT3XKXirkUaN-9" value="Print &quot;Crafted Stick.&quot;" style="shape=parallelogram;perimeter=parallelogramPerimeter;whiteSpace=wrap;html=1;fixedSize=1;" vertex="1" parent="1">
          <mxGeometry x="343" y="490" width="165" height="60" as="geometry" />
        </mxCell>
        <mxCell id="C-tJhh6TLT3XKXirkUaN-18" value="" style="edgeStyle=orthogonalEdgeStyle;rounded=0;orthogonalLoop=1;jettySize=auto;html=1;" edge="1" parent="1" source="C-tJhh6TLT3XKXirkUaN-10" target="C-tJhh6TLT3XKXirkUaN-17">
          <mxGeometry relative="1" as="geometry" />
        </mxCell>
        <mxCell id="C-tJhh6TLT3XKXirkUaN-10" value="Print &quot;Insufficient resources to craft Stick.&quot;" style="shape=parallelogram;perimeter=parallelogramPerimeter;whiteSpace=wrap;html=1;fixedSize=1;" vertex="1" parent="1">
          <mxGeometry x="295" y="620" width="260" height="50" as="geometry" />
        </mxCell>
        <mxCell id="C-tJhh6TLT3XKXirkUaN-15" value="No" style="text;html=1;align=center;verticalAlign=middle;resizable=0;points=[];autosize=1;strokeColor=none;fillColor=none;" vertex="1" parent="1">
          <mxGeometry x="550" y="398" width="40" height="30" as="geometry" />
        </mxCell>
        <mxCell id="C-tJhh6TLT3XKXirkUaN-16" value="Yes" style="text;html=1;align=center;verticalAlign=middle;resizable=0;points=[];autosize=1;strokeColor=none;fillColor=none;" vertex="1" parent="1">
          <mxGeometry x="420" y="290" width="40" height="30" as="geometry" />
        </mxCell>
        <mxCell id="C-tJhh6TLT3XKXirkUaN-17" value="End" style="ellipse;whiteSpace=wrap;html=1;" vertex="1" parent="1">
          <mxGeometry x="365" y="710" width="120" height="80" as="geometry" />
        </mxCell>
      </root>
    </mxGraphModel>
  </diagram>
</mxfile>
